<mxfile host="app.diagrams.net" modified="2022-08-08T14:04:53.775Z" agent="5.0 (Windows NT 10.0; Win64; x64) AppleWebKit/537.36 (KHTML, like Gecko) Chrome/104.0.0.0 Safari/537.36" etag="0bHD_4yZZ_NgSlyahKG3" version="20.2.3" type="github">
  <diagram id="jaZjm8k3y3vcq70dD0Iu" name="Página-1">
    <mxGraphModel dx="1089" dy="662" grid="1" gridSize="10" guides="1" tooltips="1" connect="1" arrows="1" fold="1" page="1" pageScale="1" pageWidth="827" pageHeight="1169" math="0" shadow="0">
      <root>
        <mxCell id="0" />
        <mxCell id="1" parent="0" />
        <mxCell id="PNA1Nb8l7Fp1temDnod0-9" value="" style="edgeStyle=orthogonalEdgeStyle;orthogonalLoop=1;jettySize=auto;html=1;fontSize=12;rounded=0;strokeColor=#006658;fontColor=#5C5C5C;" edge="1" parent="1" source="PNA1Nb8l7Fp1temDnod0-1" target="PNA1Nb8l7Fp1temDnod0-4">
          <mxGeometry relative="1" as="geometry" />
        </mxCell>
        <mxCell id="PNA1Nb8l7Fp1temDnod0-1" value="INICIO" style="ellipse;whiteSpace=wrap;html=1;fillColor=#21C0A5;strokeColor=#006658;fontColor=#5C5C5C;" vertex="1" parent="1">
          <mxGeometry x="354" y="20" width="120" height="80" as="geometry" />
        </mxCell>
        <mxCell id="PNA1Nb8l7Fp1temDnod0-10" value="NÃO" style="edgeStyle=orthogonalEdgeStyle;orthogonalLoop=1;jettySize=auto;html=1;fontSize=12;rounded=0;strokeColor=#006658;fontColor=#5C5C5C;" edge="1" parent="1" source="PNA1Nb8l7Fp1temDnod0-4" target="PNA1Nb8l7Fp1temDnod0-6">
          <mxGeometry x="-0.08" y="-10" relative="1" as="geometry">
            <mxPoint as="offset" />
          </mxGeometry>
        </mxCell>
        <mxCell id="PNA1Nb8l7Fp1temDnod0-13" value="SIM" style="edgeStyle=orthogonalEdgeStyle;orthogonalLoop=1;jettySize=auto;html=1;fontSize=12;rounded=0;strokeColor=#006658;fontColor=#5C5C5C;" edge="1" parent="1" source="PNA1Nb8l7Fp1temDnod0-4">
          <mxGeometry x="-0.1111" y="-14" relative="1" as="geometry">
            <mxPoint x="414" y="360" as="targetPoint" />
            <mxPoint as="offset" />
          </mxGeometry>
        </mxCell>
        <mxCell id="PNA1Nb8l7Fp1temDnod0-4" value="&lt;font style=&quot;font-size: 10px;&quot;&gt;Data do Evento posterior à data atual?&lt;/font&gt;" style="rhombus;whiteSpace=wrap;html=1;fillColor=#21C0A5;strokeColor=#006658;fontColor=#5C5C5C;" vertex="1" parent="1">
          <mxGeometry x="346" y="150" width="136" height="120" as="geometry" />
        </mxCell>
        <mxCell id="PNA1Nb8l7Fp1temDnod0-6" value="&lt;font style=&quot;font-size: 12px;&quot;&gt;Evento Negado/ Data inválida&lt;/font&gt;" style="shape=display;whiteSpace=wrap;html=1;fontSize=10;fillColor=#21C0A5;strokeColor=#006658;fontColor=#5C5C5C;" vertex="1" parent="1">
          <mxGeometry x="90" y="180" width="156" height="60" as="geometry" />
        </mxCell>
        <mxCell id="PNA1Nb8l7Fp1temDnod0-14" value="&lt;font style=&quot;font-size: 10px;&quot;&gt;Participante maior de 18 anos?&lt;/font&gt;" style="rhombus;whiteSpace=wrap;html=1;fillColor=#21C0A5;strokeColor=#006658;fontColor=#5C5C5C;" vertex="1" parent="1">
          <mxGeometry x="346" y="820" width="136" height="120" as="geometry" />
        </mxCell>
        <mxCell id="PNA1Nb8l7Fp1temDnod0-15" value="NÃO" style="edgeStyle=orthogonalEdgeStyle;orthogonalLoop=1;jettySize=auto;html=1;fontSize=12;rounded=0;strokeColor=#006658;fontColor=#5C5C5C;" edge="1" parent="1">
          <mxGeometry x="-0.08" y="-10" relative="1" as="geometry">
            <mxPoint x="346" y="879.5" as="sourcePoint" />
            <mxPoint x="246" y="879.5" as="targetPoint" />
            <mxPoint as="offset" />
          </mxGeometry>
        </mxCell>
        <mxCell id="PNA1Nb8l7Fp1temDnod0-16" value="&lt;font style=&quot;font-size: 12px;&quot;&gt;Registro negado/ Participante menor de 18 anos&lt;/font&gt;" style="shape=display;whiteSpace=wrap;html=1;fontSize=10;fillColor=#21C0A5;strokeColor=#006658;fontColor=#5C5C5C;" vertex="1" parent="1">
          <mxGeometry x="90" y="850" width="156" height="60" as="geometry" />
        </mxCell>
        <mxCell id="PNA1Nb8l7Fp1temDnod0-17" value="SIM" style="edgeStyle=orthogonalEdgeStyle;orthogonalLoop=1;jettySize=auto;html=1;fontSize=12;rounded=0;strokeColor=#006658;fontColor=#5C5C5C;" edge="1" parent="1">
          <mxGeometry x="-0.1111" y="-14" relative="1" as="geometry">
            <mxPoint x="414" y="1030" as="targetPoint" />
            <mxPoint x="414" y="940" as="sourcePoint" />
            <mxPoint as="offset" />
          </mxGeometry>
        </mxCell>
        <mxCell id="PNA1Nb8l7Fp1temDnod0-20" value="" style="edgeStyle=orthogonalEdgeStyle;orthogonalLoop=1;jettySize=auto;html=1;fontSize=12;rounded=0;strokeColor=#006658;fontColor=#5C5C5C;" edge="1" parent="1" source="PNA1Nb8l7Fp1temDnod0-18" target="PNA1Nb8l7Fp1temDnod0-19">
          <mxGeometry relative="1" as="geometry" />
        </mxCell>
        <mxCell id="PNA1Nb8l7Fp1temDnod0-18" value="&lt;font style=&quot;font-size: 12px;&quot;&gt;Evento Permitido&lt;/font&gt;" style="rhombus;whiteSpace=wrap;html=1;fillColor=#21C0A5;strokeColor=#006658;fontColor=#5C5C5C;" vertex="1" parent="1">
          <mxGeometry x="346" y="360" width="136" height="120" as="geometry" />
        </mxCell>
        <mxCell id="PNA1Nb8l7Fp1temDnod0-23" value="" style="edgeStyle=orthogonalEdgeStyle;orthogonalLoop=1;jettySize=auto;html=1;fontSize=12;rounded=0;strokeColor=#006658;fontColor=#5C5C5C;" edge="1" parent="1" source="PNA1Nb8l7Fp1temDnod0-19" target="PNA1Nb8l7Fp1temDnod0-21">
          <mxGeometry relative="1" as="geometry" />
        </mxCell>
        <mxCell id="PNA1Nb8l7Fp1temDnod0-19" value="&lt;font style=&quot;font-size: 12px;&quot;&gt;Informe a data de nascimento&lt;/font&gt;" style="shape=display;whiteSpace=wrap;html=1;fontSize=10;fillColor=#21C0A5;strokeColor=#006658;fontColor=#5C5C5C;" vertex="1" parent="1">
          <mxGeometry x="336" y="555" width="156" height="60" as="geometry" />
        </mxCell>
        <mxCell id="PNA1Nb8l7Fp1temDnod0-24" style="edgeStyle=orthogonalEdgeStyle;orthogonalLoop=1;jettySize=auto;html=1;fontSize=12;rounded=0;strokeColor=#006658;fontColor=#5C5C5C;" edge="1" parent="1" source="PNA1Nb8l7Fp1temDnod0-21">
          <mxGeometry relative="1" as="geometry">
            <mxPoint x="414" y="820" as="targetPoint" />
          </mxGeometry>
        </mxCell>
        <mxCell id="PNA1Nb8l7Fp1temDnod0-21" value="&lt;font style=&quot;font-size: 11px;&quot;&gt;Data de nascimento&lt;/font&gt;" style="shape=parallelogram;perimeter=parallelogramPerimeter;whiteSpace=wrap;html=1;fixedSize=1;fontSize=12;fillColor=#21C0A5;strokeColor=#006658;fontColor=#5C5C5C;" vertex="1" parent="1">
          <mxGeometry x="354" y="670" width="120" height="60" as="geometry" />
        </mxCell>
        <mxCell id="PNA1Nb8l7Fp1temDnod0-29" style="edgeStyle=orthogonalEdgeStyle;orthogonalLoop=1;jettySize=auto;html=1;fontSize=12;endArrow=classic;curved=1;rounded=0;strokeColor=#006658;fontColor=#5C5C5C;" edge="1" parent="1" source="PNA1Nb8l7Fp1temDnod0-25">
          <mxGeometry relative="1" as="geometry">
            <mxPoint x="540" y="1060" as="targetPoint" />
          </mxGeometry>
        </mxCell>
        <mxCell id="PNA1Nb8l7Fp1temDnod0-25" value="&lt;font style=&quot;font-size: 12px;&quot;&gt;Registro permitido/Participante maior de 18 anos&lt;/font&gt;" style="shape=display;whiteSpace=wrap;html=1;fontSize=10;fillColor=#21C0A5;strokeColor=#006658;fontColor=#5C5C5C;" vertex="1" parent="1">
          <mxGeometry x="318" y="1030" width="156" height="60" as="geometry" />
        </mxCell>
        <mxCell id="PNA1Nb8l7Fp1temDnod0-30" value="Listar Participantes" style="whiteSpace=wrap;html=1;fontSize=16;fillColor=#21C0A5;strokeColor=#006658;fontColor=#5C5C5C;" vertex="1" parent="1">
          <mxGeometry x="540" y="1030" width="120" height="60" as="geometry" />
        </mxCell>
        <mxCell id="PNA1Nb8l7Fp1temDnod0-32" style="edgeStyle=orthogonalEdgeStyle;orthogonalLoop=1;jettySize=auto;html=1;fontSize=12;endArrow=classic;startSize=6;endSize=6;rounded=0;entryX=0;entryY=0.5;entryDx=0;entryDy=0;strokeColor=#006658;fontColor=#5C5C5C;" edge="1" parent="1" target="PNA1Nb8l7Fp1temDnod0-33">
          <mxGeometry relative="1" as="geometry">
            <mxPoint x="726" y="1059.5800000000002" as="targetPoint" />
            <mxPoint x="660" y="1059.5800000000002" as="sourcePoint" />
          </mxGeometry>
        </mxCell>
        <mxCell id="PNA1Nb8l7Fp1temDnod0-36" value="NÃO" style="edgeStyle=orthogonalEdgeStyle;curved=1;rounded=0;orthogonalLoop=1;jettySize=auto;html=1;fontSize=12;endArrow=classic;strokeColor=#006658;fontColor=#5C5C5C;" edge="1" parent="1" source="PNA1Nb8l7Fp1temDnod0-33">
          <mxGeometry y="-22" relative="1" as="geometry">
            <mxPoint x="797.9999999999998" y="920" as="targetPoint" />
            <mxPoint as="offset" />
          </mxGeometry>
        </mxCell>
        <mxCell id="PNA1Nb8l7Fp1temDnod0-40" value="SIM" style="edgeStyle=orthogonalEdgeStyle;curved=1;orthogonalLoop=1;jettySize=auto;html=1;fontSize=12;endArrow=classic;startSize=6;endSize=6;rounded=0;strokeColor=#006658;fontColor=#5C5C5C;" edge="1" parent="1" source="PNA1Nb8l7Fp1temDnod0-33">
          <mxGeometry x="-0.0638" y="-10" relative="1" as="geometry">
            <mxPoint x="960" y="1059.9999999999998" as="targetPoint" />
            <mxPoint as="offset" />
          </mxGeometry>
        </mxCell>
        <mxCell id="PNA1Nb8l7Fp1temDnod0-33" value="&lt;font style=&quot;font-size: 9px;&quot;&gt;Lista de participantes &amp;gt;= 100?&lt;/font&gt;" style="rhombus;whiteSpace=wrap;html=1;fillColor=#21C0A5;strokeColor=#006658;fontColor=#5C5C5C;" vertex="1" parent="1">
          <mxGeometry x="730" y="1000" width="136" height="120" as="geometry" />
        </mxCell>
        <mxCell id="PNA1Nb8l7Fp1temDnod0-43" style="edgeStyle=orthogonalEdgeStyle;shape=connector;curved=1;rounded=0;orthogonalLoop=1;jettySize=auto;html=1;fontFamily=Helvetica;fontSize=11;fontColor=#5C5C5C;endArrow=classic;strokeColor=#006658;entryX=0.018;entryY=0.381;entryDx=0;entryDy=0;entryPerimeter=0;" edge="1" parent="1" source="PNA1Nb8l7Fp1temDnod0-39" target="PNA1Nb8l7Fp1temDnod0-44">
          <mxGeometry relative="1" as="geometry">
            <mxPoint x="960" y="890" as="targetPoint" />
          </mxGeometry>
        </mxCell>
        <mxCell id="PNA1Nb8l7Fp1temDnod0-39" value="&lt;span style=&quot;font-size: 12px;&quot;&gt;Cadastro realizado com sucesso&lt;/span&gt;" style="shape=display;whiteSpace=wrap;html=1;fontSize=10;fillColor=#21C0A5;strokeColor=#006658;fontColor=#5C5C5C;" vertex="1" parent="1">
          <mxGeometry x="710" y="860" width="156" height="60" as="geometry" />
        </mxCell>
        <mxCell id="PNA1Nb8l7Fp1temDnod0-42" style="edgeStyle=orthogonalEdgeStyle;shape=connector;curved=1;rounded=0;orthogonalLoop=1;jettySize=auto;html=1;fontFamily=Helvetica;fontSize=11;fontColor=#5C5C5C;endArrow=classic;strokeColor=#006658;" edge="1" parent="1" source="PNA1Nb8l7Fp1temDnod0-41">
          <mxGeometry relative="1" as="geometry">
            <mxPoint x="1038" y="940" as="targetPoint" />
          </mxGeometry>
        </mxCell>
        <mxCell id="PNA1Nb8l7Fp1temDnod0-41" value="&lt;font style=&quot;font-size: 11px;&quot;&gt;Cadastro não realizado/Lista de participantes excedida&lt;/font&gt;" style="shape=display;whiteSpace=wrap;html=1;fontSize=10;fillColor=#21C0A5;strokeColor=#006658;fontColor=#5C5C5C;" vertex="1" parent="1">
          <mxGeometry x="960" y="1030" width="156" height="60" as="geometry" />
        </mxCell>
        <mxCell id="PNA1Nb8l7Fp1temDnod0-44" value="FIM" style="ellipse;whiteSpace=wrap;html=1;fillColor=#21C0A5;strokeColor=#006658;fontColor=#5C5C5C;" vertex="1" parent="1">
          <mxGeometry x="978" y="860" width="120" height="80" as="geometry" />
        </mxCell>
      </root>
    </mxGraphModel>
  </diagram>
</mxfile>
